<?xml version="1.0" encoding="UTF-8"?>
<svg width="69px" height="78px" viewBox="0 0 69 78" version="1.1" xmlns="http://www.w3.org/2000/svg" xmlns:xlink="http://www.w3.org/1999/xlink">
    <!-- Generator: sketchtool 51.3 (57544) - http://www.bohemiancoding.com/sketch -->
    <title>591B7F8F-BB25-4F19-B18A-FCE155A44959</title>
    <desc>Created with sketchtool.</desc>
    <defs></defs>
    <g id="Page-1" stroke="none" stroke-width="1" fill="none" fill-rule="evenodd">
        <g id="Login" transform="translate(-173.000000, -176.000000)">
            <g id="Group-2" transform="translate(150.000000, 178.399576)">
                <g id="Group" transform="translate(25.000000, 0.781635)">
                    <path d="M0.500931015,13.4115087 C7.74176741,10.8998404 12.8342444,8.92872699 15.7783621,7.49816831 C21.943378,4.50256217 26.0794922,0.17489812 32.2445081,0.17489812 C38.3483469,0.17489812 43.4760537,5.40525875 49.5798925,8.34170745 C52.5647949,9.77769112 57.3675258,11.4676249 63.9880852,13.4115087 C62.3530201,28.3414792 59.2318245,40.0418474 54.6244984,48.5126134 C50.0171723,56.9833794 42.5571755,64.7369856 32.2445081,71.7734319 C19.6441632,63.9837125 11.1815609,55.2269969 6.85670112,45.503285 C2.53184135,35.7795732 0.413251319,25.0823144 0.500931015,13.4115087 Z" id="Path-3" stroke="#0000FF" stroke-width="5" fill="#FFFFFF"></path>
                    <path d="M32.0753391,49.3585451 C31.8834708,49.2498868 31.7279403,49.1027602 31.6024743,48.9213079 C28.7133233,44.7423426 26.0991323,40.4157771 24.5250072,35.5437896 C24.0391223,34.0400912 23.7253389,32.5010019 23.7396609,30.9021388 C23.7720927,27.294754 26.3851001,23.8729643 29.8583782,22.9204878 C30.3543241,22.7844874 30.6958109,22.6483127 31.332039,22.6483127 C31.6921806,22.6092942 31.9597997,22.5897849 32.1348965,22.5897849 C32.354347,22.5897849 32.6881405,22.6092942 33.136277,22.6483127 C34.6811661,22.6928176 36.078652,23.2830373 37.2833625,24.2221386 C39.9382708,26.2918544 41.1156392,29.0120997 40.6464436,32.3708014 C40.3099343,34.7792755 39.35947,36.9980118 38.3413014,39.178043 C36.7884819,42.5030109 34.9772734,45.6884274 33.0037877,48.7818749 C32.8522815,49.0190767 32.6888206,49.2329607 32.4304316,49.3585451 L32.0753391,49.3585451 Z M32.2614668,34.0215601 C34.1348078,34.0215601 35.6534507,32.5029171 35.6534507,30.6295761 C35.6534507,28.7562351 34.1348078,27.2375922 32.2614668,27.2375922 C30.3881258,27.2375922 28.8694828,28.7562351 28.8694828,30.6295761 C28.8694828,32.5029171 30.3881258,34.0215601 32.2614668,34.0215601 Z" id="Combined-Shape" fill="#0000FF"></path>
                </g>
            </g>
        </g>
    </g>
</svg>