<?xml version="1.0" encoding="UTF-8"?>
<svg width="17px" height="16px" viewBox="0 0 17 16" version="1.1" xmlns="http://www.w3.org/2000/svg" xmlns:xlink="http://www.w3.org/1999/xlink">
    <!-- Generator: sketchtool 51.3 (57544) - http://www.bohemiancoding.com/sketch -->
    <title>D2A93197-D539-4F06-8DB9-66974882046C</title>
    <desc>Created with sketchtool.</desc>
    <defs></defs>
    <g id="Page-1" stroke="none" stroke-width="1" fill="none" fill-rule="evenodd">
        <g id="Landing-Map" transform="translate(-55.000000, -60.000000)" fill="#C6C6CB" fill-rule="nonzero">
            <g id="Group" transform="translate(22.647098, 41.919252)">
                <g id="Group-6" transform="translate(32.000000, 16.000000)">
                    <path d="M16.3963362,16.5938889 L12.4723929,12.6699456 C14.4453253,10.1051334 14.248032,6.40040484 11.8805131,4.05480744 C10.5871463,2.76144064 8.92111454,2.12571798 7.23316127,2.12571798 C5.545208,2.12571798 3.8791762,2.76144064 2.5858094,4.05480744 C0.0209972898,6.61961955 0.0209972898,10.7846991 2.5858094,13.3495112 C3.8791762,14.642878 5.545208,15.2786006 7.23316127,15.2786006 C8.63613542,15.2786006 10.0391096,14.8401712 11.2009475,13.9413909 L15.1468123,17.8434127 C15.3221841,18.0187845 15.5413988,18.1064704 15.782535,18.1064704 C16.0017497,18.1064704 16.2428859,18.0187845 16.4182576,17.8434127 C16.7470797,17.5145907 16.7470797,16.9446324 16.3963362,16.5938889 Z M7.25508274,13.5029615 C5.96171595,13.5029615 4.77795651,12.9987676 3.85725473,12.0999873 C1.99392969,10.2366623 1.99392969,7.1895778 3.85725473,5.30433129 C4.75603504,4.40555097 5.96171595,3.90135714 7.25508274,3.90135714 C8.54844953,3.90135714 9.73220897,4.40555097 10.6529108,5.30433129 C11.5736125,6.2031116 12.0558849,7.40879251 12.0558849,8.7021593 C12.0558849,9.99552609 11.5516911,11.1792855 10.6529108,12.0999873 C9.75413044,13.0206891 8.52652806,13.5029615 7.25508274,13.5029615 Z" id="Shape"></path>
                </g>
            </g>
        </g>
    </g>
</svg>